Beyonce.I.Am...World.Tour.1020p.Bluray.h264


Description:
---------------
This special concert includes performances by superstar Jay-Z and Kanye West with more than 20 minutes of exclusive footage behind the scenes of the pop superstar on tour.
This musical version of the R & B diva Beyonce shows some of the most memorable performances of his 2009 I Am. . . concerts, including songs like "Tomorrow I Am Sasha Fierce", "If you shoot me with it," "Smash Into You", "Robot," "Freakum Dress", and more.

This is the only video Ed Burke. Stars also making their debut in this video: Frank Gatson, Jr..


TrackList:
----------------

1. Intro
2. Crazy In Love feat. Jay-Z
3. Naughty Girl
4. Tomorrow I Am Sasha Fierce
5. Freakum Dress
6. Get Me Bodied
7. Smash Into You
8. Ave Maria
9. Broken-Hearted Girl
10. If I Were A Boy / You Oughta Know
11. Robot
12. Diva
13. Radio
14. Socks & Stilettos
15. Ego feat. Kanye West
16. Hello
17. Sasha vs. Beyonce
18. Baby Boy / You Do not Love Me, No No No
19. Irreplaceable
20. Check On It
21. Bootylicious
22. Upgrade U
23. Video Phone
24. Are You Filming Me With That?
25. Say My Name
26. At Last
27. Listen
28. Single Ladies Contest
29. Single Ladies (Put A Ring On It)
30. Halo

Information
------------------------

Beyonce.I.Am...World.Tour.1020p.Bluray.h264.mp4
      Format : MPEG-4
      Format profile : Base Media
      Codec ID : isom
      File size : 6.97 GiB
      Duration : 1h 39mn
      Overall bit rate : 10.1 Mbps
      Encoded date : UTC 2010-12-27 02:38:08
      Tagged date : UTC 2010-12-27 02:38:08
   Video #1
      ID : 1
      Format : AVC
      Format/Info : Advanced Video Codec
      Format profile : Baseline@L4.0
      Format settings, CABAC : No
      Format settings, ReFrames : 1 frame
      Codec ID : avc1
      Codec ID/Info : Advanced Video Coding
      Duration : 1h 39mn
      Bit rate mode : Variable
      Bit rate : 9 918 Kbps
      Width : 1 920 pixels
      Height : 1 080 pixels
      Display aspect ratio : 16:9
      Frame rate mode : Constant
      Frame rate : 29.970 fps
      Resolution : 24 bits
      Colorimetry : 4:2:0
      Scan type : Progressive
      Bits/(Pixel*Frame) : 0.160
      Stream size : 6.86 GiB (98%)
      Encoded date : UTC 2010-12-27 02:38:08
      Tagged date : UTC 2010-12-27 02:38:08
   Audio #2
      ID : 2
      Format : AAC
      Format/Info : Advanced Audio Codec
      Format version : Version 4
      Format profile : LC
      Format settings, SBR : No
      Codec ID : 40
      Duration : 1h 39mn
      Bit rate mode : Variable
      Bit rate : 152 Kbps
      Channel(s) : 2 channels
      Channel positions : L R
      Sampling rate : 44.1 KHz
      Resolution : 16 bits
      Stream size : 108 MiB (2%)
      Encoded date : UTC 2010-12-27 02:38:08
      Tagged date : UTC 2010-12-27 02:38:08